<svg xmlns="http://www.w3.org/2000/svg" width="256" height="256" fill="none" viewBox="0 0 256 256"><rect width="256" height="256" fill="#242938" rx="60"/><g transform="translate(16, 100) scale(1.75, 2.3)"><path fill="#EE342F" d="M3.3625 19.6861C1.45416 17.9796 0.5 15.4573 0.5 12.1257C0.5 8.794 1.47269 6.27168 3.42117 4.56522C5.36656 2.85876 8.02835 2.00391 11.4035 2.00391C12.8054 2.00391 14.0436 2.10467 15.1213 2.31269C16.199 2.51747 17.2304 2.86526 18.2154 3.35932V8.76474C16.6838 8.0009 14.9453 7.61735 12.9999 7.61735C11.2861 7.61735 10.0201 7.95864 9.20485 8.64123C8.38655 9.32381 7.97895 10.4842 7.97895 12.1257C7.97895 13.7119 8.38037 14.8592 9.18632 15.5678C9.98918 16.2797 11.2614 16.634 13.003 16.634C14.8465 16.634 16.5973 16.1822 18.2586 15.2818V20.9375C16.4152 21.8119 14.1177 22.2474 11.3664 22.2474C7.93572 22.2474 5.27084 21.3926 3.3625 19.6861Z"/><path fill="#EE342F" d="M19.9202 12.1217C19.9202 8.81609 20.8157 6.30353 22.6067 4.58082C24.3976 2.85811 27.0965 2 30.7063 2C34.3408 2 37.0581 2.86136 38.8646 4.58082C40.6679 6.30028 41.5696 8.81609 41.5696 12.1217C41.5696 18.8696 37.9474 22.2435 30.7063 22.2435C23.5145 22.2467 19.9202 18.8728 19.9202 12.1217ZM33.297 15.5672C33.8282 14.8553 34.0937 13.7079 34.0937 12.125C34.0937 10.5681 33.8282 9.42717 33.297 8.70233C32.7659 7.97749 31.9013 7.61669 30.7063 7.61669C29.539 7.61669 28.6929 7.98074 28.1742 8.70233C27.6554 9.42717 27.396 10.5681 27.396 12.125C27.396 13.7112 27.6554 14.8586 28.1742 15.5672C28.6929 16.279 29.5359 16.6333 30.7063 16.6333C31.9013 16.6333 32.7628 16.2758 33.297 15.5672Z"/><path fill="#EE342F" d="M43.2736 2.40955H50.1257L50.3202 3.88523C51.0737 3.33917 52.034 2.88736 53.2012 2.53307C54.3685 2.17877 55.5758 2 56.8234 2C59.1331 2 60.8191 2.60132 61.8845 3.80397C62.9498 5.00662 63.4809 6.8626 63.4809 9.37841V21.8372H56.1626V10.1553C56.1626 9.2809 55.9742 8.65357 55.5975 8.27002C55.2207 7.88648 54.5908 7.69795 53.7077 7.69795C53.1642 7.69795 52.6053 7.82797 52.034 8.088C51.4627 8.34803 50.9841 8.68282 50.5919 9.09237V21.8372H43.2736V2.40955Z"/><path fill="#EE342F" d="M63.502 2.41016H71.1322L74.637 13.8028L78.1418 2.41016H85.772L78.4907 21.8378H70.7802L63.502 2.41016Z"/><path fill="#EE342F" d="M88.0761 20.1665C85.8775 18.4308 84.8492 15.4177 84.8492 12.164C84.8492 8.99486 85.6675 6.38479 87.5357 4.58082C89.4039 2.77685 92.251 2 95.8453 2C99.1525 2 101.753 2.8061 103.652 4.4183C105.548 6.0305 106.499 8.23102 106.499 11.0166V14.4198H92.5814C92.9272 15.4307 93.3657 16.162 94.4434 16.6138C95.5211 17.0656 97.0249 17.2899 98.9487 17.2899C100.097 17.2899 101.271 17.1956 102.463 17.0039C102.883 16.9356 103.574 16.8283 103.939 16.7471V21.4699C102.12 21.99 99.696 22.25 96.9632 22.25C93.2854 22.2467 90.2747 21.9022 88.0761 20.1665ZM98.8097 10.2398C98.8097 9.27765 97.7568 7.20714 95.6415 7.20714C93.7332 7.20714 92.4733 9.24514 92.4733 10.2398H98.8097Z"/><path fill="#EE342F" d="M112.245 11.9598L105.393 2.41016H113.335L127.351 21.8378H119.332L116.216 17.492L113.1 21.8378H105.118L112.245 11.9598Z"/><path fill="#EE342F" d="M119.155 2.41016H127.06L120.993 10.9165L116.978 5.46553L119.155 2.41016Z"/></g></svg>
